<svg xmlns="http://www.w3.org/2000/svg" viewBox="0 0 800 300" font-family="system-ui, -apple-system, sans-serif">
  <defs><marker id="a" markerWidth="8" markerHeight="6" refX="8" refY="3" orient="auto"><polygon points="0 0, 8 3, 0 6" fill="#334155"/></marker></defs>
  <rect width="800" height="300" fill="#fafbfc" rx="12"/>
  <text x="400" y="28" text-anchor="middle" fill="#1e293b" font-size="15" font-weight="700">Royalty Stream Counting — $9B+ Paid to Rights Holders Annually</text>

  <!-- Pipeline -->
  <rect x="20" y="55" width="90" height="55" rx="8" fill="#1db954"/>
  <text x="65" y="78" text-anchor="middle" fill="white" font-size="9" font-weight="700">🎵 Play Event</text>
  <text x="65" y="96" text-anchor="middle" fill="rgba(255,255,255,0.7)" font-size="7">3B/day</text>

  <line x1="110" y1="82" x2="135" y2="82" stroke="#334155" stroke-width="1.5" marker-end="url(#a)"/>

  <rect x="140" y="50" width="100" height="65" rx="8" fill="#f97316"/>
  <text x="190" y="73" text-anchor="middle" fill="white" font-size="9" font-weight="700">Kafka</text>
  <text x="190" y="90" text-anchor="middle" fill="rgba(255,255,255,0.7)" font-size="7">play-events topic</text>
  <text x="190" y="105" text-anchor="middle" fill="rgba(255,255,255,0.7)" font-size="7">Immutable log</text>

  <line x1="240" y1="82" x2="265" y2="82" stroke="#334155" stroke-width="1.5" marker-end="url(#a)"/>

  <rect x="270" y="45" width="120" height="75" rx="8" fill="#ef4444"/>
  <text x="330" y="68" text-anchor="middle" fill="white" font-size="9" font-weight="700">🛡 Flink Validator</text>
  <text x="330" y="86" text-anchor="middle" fill="rgba(255,255,255,0.7)" font-size="7">30s minimum watch</text>
  <text x="330" y="100" text-anchor="middle" fill="rgba(255,255,255,0.7)" font-size="7">Dedup same session</text>
  <text x="330" y="114" text-anchor="middle" fill="rgba(255,255,255,0.7)" font-size="7">Reject bot streams</text>

  <line x1="390" y1="82" x2="415" y2="82" stroke="#334155" stroke-width="1.5" marker-end="url(#a)"/>

  <rect x="420" y="50" width="120" height="65" rx="8" fill="#3b82f6"/>
  <text x="480" y="73" text-anchor="middle" fill="white" font-size="9" font-weight="700">📊 Aggregator</text>
  <text x="480" y="90" text-anchor="middle" fill="rgba(255,255,255,0.7)" font-size="7">Group by track/label</text>
  <text x="480" y="105" text-anchor="middle" fill="rgba(255,255,255,0.7)" font-size="7">Per-country rates</text>

  <line x1="540" y1="82" x2="565" y2="82" stroke="#334155" stroke-width="1.5" marker-end="url(#a)"/>

  <rect x="570" y="50" width="100" height="65" rx="8" fill="#7c3aed"/>
  <text x="620" y="73" text-anchor="middle" fill="white" font-size="9" font-weight="700">💰 Royalty DB</text>
  <text x="620" y="90" text-anchor="middle" fill="rgba(255,255,255,0.7)" font-size="7">Rights holder</text>
  <text x="620" y="105" text-anchor="middle" fill="rgba(255,255,255,0.7)" font-size="7">payments</text>

  <line x1="670" y1="82" x2="695" y2="82" stroke="#334155" stroke-width="1.5" marker-end="url(#a)"/>

  <rect x="700" y="55" width="80" height="55" rx="8" fill="#1db954"/>
  <text x="740" y="78" text-anchor="middle" fill="white" font-size="9" font-weight="700">💵 Payout</text>
  <text x="740" y="96" text-anchor="middle" fill="rgba(255,255,255,0.7)" font-size="7">$9B+/year</text>

  <!-- Stream record details -->
  <rect x="20" y="140" width="370" height="140" rx="10" fill="#fff" stroke="#2563eb" stroke-width="1.5"/>
  <rect x="20" y="140" width="370" height="28" rx="10 10 0 0" fill="#2563eb"/>
  <text x="205" y="159" text-anchor="middle" fill="white" font-size="11" font-weight="700">📋 Stream Record Fields</text>

  <text x="40" y="188" fill="#1e293b" font-size="10">track_id: <tspan fill="#64748b">"4cOdK2wGLETKBW3PvgPWqT"</tspan></text>
  <text x="40" y="208" fill="#1e293b" font-size="10">user_country: <tspan fill="#64748b">"US"</tspan></text>
  <text x="40" y="228" fill="#1e293b" font-size="10">subscription: <tspan fill="#64748b">"premium"</tspan></text>
  <text x="40" y="248" fill="#1e293b" font-size="10">play_duration_ms: <tspan fill="#64748b">213400</tspan></text>
  <text x="40" y="268" fill="#1e293b" font-size="10">timestamp: <tspan fill="#64748b">"2026-04-19T14:23:..."</tspan></text>

  <!-- 30-second rule -->
  <rect x="410" y="140" width="370" height="140" rx="10" fill="#fff" stroke="#f59e0b" stroke-width="1.5"/>
  <rect x="410" y="140" width="370" height="28" rx="10 10 0 0" fill="#f59e0b"/>
  <text x="595" y="159" text-anchor="middle" fill="white" font-size="11" font-weight="700">⏱ The 30-Second Rule</text>

  <text x="430" y="188" fill="#ef4444" font-size="10" font-weight="600">❌ Played &lt;30 seconds: NO royalty counted</text>
  <text x="445" y="206" fill="#64748b" font-size="9">Skip, accidental play, preview</text>

  <text x="430" y="232" fill="#22c55e" font-size="10" font-weight="600">✓ Played ≥30 seconds: 1 stream counted</text>
  <text x="445" y="250" fill="#64748b" font-size="9">Triggers royalty payment to rights holder</text>

  <text x="430" y="275" fill="#64748b" font-size="9" font-weight="600">Audit trail: 7+ year retention (legal requirement)</text>
</svg>